FILE "240pSuite-01.wav" WAVE
  TRACK 01 AUDIO
    INDEX 01 00:00:00
FILE "240pSuite.iso" BINARY
  TRACK 02 MODE1/2048
    PREGAP 00:03:00
    INDEX 01 00:00:00
FILE "240pSuite-02.wav" WAVE
  TRACK 03 AUDIO
    PREGAP 00:02:00
    INDEX 01 00:00:00